<svg width="305" height="211" viewBox="0 0 305 211" fill="none" xmlns="http://www.w3.org/2000/svg">
<path d="M8.50952 32.2158H35.3044V99.9004H8.50952V32.2158ZM43.572 50.6436C43.572 43.3057 45.4314 38.375 49.1501 35.8516C52.6697 33.4941 59.2937 32.3154 69.0222 32.3154H74.0525V41.7285C74.0525 49.2324 72.1433 54.5781 68.3249 57.7656C64.4402 60.9531 57.7498 62.5469 48.2537 62.5469H43.572V50.6436ZM43.572 67.7266H48.2537C57.6169 67.7266 64.3074 69.5859 68.3249 73.3047C72.1433 76.8574 74.0525 82.4688 74.0525 90.1387V100H69.0222C59.4929 100 52.8689 98.5723 49.1501 95.7168C45.4314 92.8281 43.572 87.6484 43.572 80.1777V67.7266ZM162.157 49.1992H189.699V78.2354C189.699 85.5732 188.022 90.9688 184.669 94.4219C180.983 98.1406 174.957 100 166.59 100H162.157V49.1992ZM88.2468 49.1992H115.789V100H111.356C99.1042 100 91.7996 95.8496 89.4421 87.5488C88.6453 84.8594 88.2468 81.7549 88.2468 78.2354V49.1992ZM125.152 49.249H152.844V100.05H125.152V49.249ZM240.898 49.1992H245.381C257.599 49.1992 264.887 53.3496 267.245 61.6504C268.042 64.3398 268.44 67.4443 268.44 70.9639V100H240.898V49.1992ZM204.989 49.1992H232.68V100H204.989V49.1992Z" fill="white"/>
<path d="M77.125 126.815L77.0625 134.252V142.94C77.0625 147.982 74.8125 152.565 70.3125 156.69L30.4375 190.565H9C9.08333 188.732 9.125 186.648 9.125 184.315V174.252C9.125 171.169 9.70833 168.565 10.875 166.44C12.0833 164.315 13.7083 162.336 15.75 160.502L55.5625 126.815H77.125ZM6.8125 135.002C6.8125 131.544 7.39583 128.815 8.5625 126.815H38.875L14.5 147.815H12.625C8.75 145.315 6.8125 141.044 6.8125 135.002ZM78.5 182.377C78.5 185.877 77.9583 188.607 76.875 190.565H46.5625L71.75 168.94C76.25 172.107 78.5 176.586 78.5 182.377ZM138.625 126.815H173.125V190.565H169.188C158.354 190.565 150.562 188.669 145.812 184.877C141.021 181.044 138.625 174.711 138.625 165.877V126.815ZM93.5 159.44C93.5 154.857 94.1042 150.607 95.3125 146.69C96.5208 142.732 98.3958 139.273 100.938 136.315C106.438 129.982 114.312 126.815 124.562 126.815H129.375V190.565H126.125C115.625 190.565 107.5 187.69 101.75 181.94C96.25 176.44 93.5 168.94 93.5 159.44ZM191.312 183.252C191.312 173.877 196.167 168.732 205.875 167.815C208.792 167.565 211.875 167.44 215.125 167.44L196.062 150.252C192.896 146.752 191.312 141.169 191.312 133.502V126.815H217.688L237.188 143.127C237.729 136.377 240.333 131.836 245 129.502C248.583 127.711 254.875 126.815 263.875 126.815H267.25V134.127C267.25 143.086 262.708 148.148 253.625 149.315C250.958 149.69 248.125 149.898 245.125 149.94C255.292 159.107 260.812 164.44 261.688 165.94C262.062 166.607 262.667 167.461 263.5 168.502C264.375 169.544 265.208 171.398 266 174.065C266.833 176.732 267.25 180.002 267.25 183.877V190.565H240.812L221.438 173.127C221.062 180.336 218.542 185.19 213.875 187.69C210.292 189.607 203.896 190.565 194.688 190.565H191.312V183.252Z" fill="white"/>
</svg>
